<svg width="35" height="35" viewBox="0 0 35 35" fill="none" xmlns="http://www.w3.org/2000/svg">
<rect x="0.00274658" width="35" height="35" rx="4" fill="#7FD1FF" fill-opacity="0.66"/>
<path d="M17.4967 8C13.3637 8 10 11.2915 10 15.334C10 22.4472 17.0746 27.8548 17.0746 27.8548C17.3232 28.0484 17.6755 28.0484 17.924 27.8548C17.924 27.8548 25 22.4472 25 15.334C25 11.2915 21.6296 8 17.4967 8ZM17.4967 12.0017C19.3709 12.0017 20.9088 13.5008 20.9088 15.334C20.9089 17.1673 19.3709 18.6703 17.4967 18.6703C15.6224 18.6703 14.0898 17.1673 14.0898 15.334C14.0898 13.5008 15.6225 12.0017 17.4967 12.0017Z" fill="#2681ED"/>
</svg>
