<svg width="22" height="22" viewBox="0 0 22 22" fill="none" xmlns="http://www.w3.org/2000/svg">
<path d="M20.4286 9.35H5.34286L8.97286 5.5385C9.28243 5.21345 9.42857 4.8257 9.42857 4.4C9.42857 3.5882 8.78979 2.75 7.85714 2.75C7.43993 2.75 7.07614 2.90922 6.77286 3.2285L0.520143 9.79385C0.262429 10.0644 0 10.3986 0 11C0 11.6014 0.219214 11.891 0.507571 12.1938L6.77286 18.7715C7.07614 19.0908 7.43993 19.25 7.85714 19.25C8.79057 19.25 9.42857 18.4118 9.42857 17.6C9.42857 17.1743 9.28243 16.7866 8.97286 16.4615L5.34286 12.65H20.4286C21.296 12.65 22 11.9108 22 11C22 10.0892 21.296 9.35 20.4286 9.35Z" fill="black"/>
</svg>
