<svg width="20" height="20" viewBox="0 0 20 20" fill="none" xmlns="http://www.w3.org/2000/svg">
<g clip-path="url(#clip0_106_249)">
<path d="M9.08331 9.08334V5.41668H10.9166V9.08334H14.5833V10.9167H10.9166V14.5833H9.08331V10.9167H5.41665V9.08334H9.08331ZM9.99998 19.1667C4.93723 19.1667 0.833313 15.0628 0.833313 10C0.833313 4.93726 4.93723 0.833344 9.99998 0.833344C15.0627 0.833344 19.1666 4.93726 19.1666 10C19.1666 15.0628 15.0627 19.1667 9.99998 19.1667ZM9.99998 17.3333C11.9449 17.3333 13.8102 16.5607 15.1854 15.1855C16.5607 13.8102 17.3333 11.9449 17.3333 10C17.3333 8.05509 16.5607 6.18983 15.1854 4.81456C13.8102 3.43929 11.9449 2.66668 9.99998 2.66668C8.05506 2.66668 6.1898 3.43929 4.81453 4.81456C3.43926 6.18983 2.66665 8.05509 2.66665 10C2.66665 11.9449 3.43926 13.8102 4.81453 15.1855C6.1898 16.5607 8.05506 17.3333 9.99998 17.3333Z" fill="black"/>
</g>
<defs>
<clipPath id="clip0_106_249">
<rect width="20" height="20" fill="white"/>
</clipPath>
</defs>
</svg>
