<svg width="35" height="35" viewBox="0 0 35 35" fill="none" xmlns="http://www.w3.org/2000/svg">
<rect width="35" height="35" rx="4" fill="#89F2A6" fill-opacity="0.66"/>
<path d="M26.2501 22.0517V25.293C26.2502 25.5251 26.1622 25.7486 26.004 25.9183C25.8458 26.0881 25.6291 26.1916 25.3976 26.2078C24.997 26.2353 24.6697 26.25 24.4167 26.25C16.3161 26.25 9.75006 19.6839 9.75006 11.5833C9.75006 11.3303 9.76381 11.0031 9.79223 10.6025C9.80847 10.371 9.91193 10.1543 10.0817 9.99604C10.2515 9.83782 10.475 9.7499 10.7071 9.75H13.9484C14.0621 9.74989 14.1718 9.79204 14.2561 9.86827C14.3405 9.9445 14.3935 10.0494 14.4049 10.1625C14.426 10.3733 14.4452 10.5411 14.4636 10.6685C14.6457 11.9398 15.0191 13.1763 15.5709 14.3361C15.658 14.5194 15.6011 14.7385 15.4361 14.8558L13.458 16.2693C14.6675 19.0876 16.9134 21.3335 19.7316 22.543L21.1433 20.5685C21.201 20.4878 21.2852 20.43 21.3812 20.405C21.4772 20.3801 21.5789 20.3896 21.6686 20.4319C22.8282 20.9827 24.0643 21.3551 25.3352 21.5365C25.4626 21.5548 25.6304 21.575 25.8394 21.5952C25.9524 21.6067 26.057 21.6599 26.133 21.7442C26.2091 21.8285 26.2511 21.9381 26.251 22.0517H26.2501Z" fill="#00C938"/>
</svg>
