<svg width="23" height="22" viewBox="0 0 23 22" fill="none" xmlns="http://www.w3.org/2000/svg">
<g clip-path="url(#clip0_107_144)">
<path d="M11.175 5.13333C10.35 5.13333 9.70831 5.775 9.70831 6.6C9.70831 7.425 10.35 8.06666 11.175 8.06666C12.275 8.06666 13.2833 8.98333 13.2833 10.175C13.2833 11 13.925 11.6417 14.75 11.6417C15.575 11.6417 16.2166 11 16.2166 10.175C16.125 7.33333 13.925 5.13333 11.175 5.13333Z" fill="black"/>
<path d="M22.4327 19.5172L19.1365 16.2069C22.0665 12.2529 21.7918 6.55172 18.2209 2.96552C14.2838 -0.988506 7.87454 -0.988506 3.93742 2.96552C1.92307 4.8046 0.824341 7.37931 0.824341 10.1379C0.824341 12.8966 1.92307 15.3793 3.75429 17.3103C5.76864 19.3333 8.33235 20.2529 10.8961 20.2529C13.002 20.2529 15.1994 19.6092 16.9391 18.2299L20.2353 21.5402C20.51 21.8161 20.8762 22 21.2425 22C21.6087 22 21.9749 21.8161 22.2496 21.5402C22.9821 20.9885 22.9821 20.069 22.4327 19.5172ZM5.8602 15.1954C4.48678 13.8161 3.75429 11.977 3.75429 10.046C3.75429 8.11494 4.48678 6.36782 5.8602 4.98851C7.23361 3.51724 9.06483 2.87356 10.9876 2.87356C12.9104 2.87356 14.6501 3.6092 16.115 4.98851C18.9534 7.83908 18.9534 12.4368 16.115 15.2874C13.2766 18.046 8.69859 18.046 5.8602 15.1954Z" fill="black"/>
</g>
<defs>
<clipPath id="clip0_107_144">
<rect width="23" height="22" fill="white"/>
</clipPath>
</defs>
</svg>
